<?xml version="1.0" encoding="utf-8"?>
<!-- Generator: Adobe Illustrator 19.2.1, SVG Export Plug-In . SVG Version: 6.00 Build 0)  -->
<svg version="1.1" id="layer" xmlns="http://www.w3.org/2000/svg" xmlns:xlink="http://www.w3.org/1999/xlink" x="0px" y="0px"
	 viewBox="0 0 652 652" style="enable-background:new 0 0 652 652;" xml:space="preserve">
<style type="text/css">
	.st0{fill:#636466;}
	.st1{fill:#58595B;}
</style>
<g>
	<path class="st0" d="M354.9,338.2c-8.1,0.3-18.1-6.1-26.3-16c0,0-0.5-0.5-0.9-1.2l0.8,0.8c6.6,6.7,13.8,11,19.8,10.8
		c10.7-0.3,13.2-14.5,5.5-31.8c-5.8-13.1-15.8-24.3-25-28.8c0,0-0.8-0.4-1.1-0.5c1.1,0.2,1.4,0.2,1.4,0.2
		c11.4,2.1,25.4,15.5,32.8,32.1C369.9,322.4,366.9,337.7,354.9,338.2"/>
	<path class="st0" d="M385.2,266.9c-2.2,7.8-11.5,15.3-23.5,19.9c0,0-0.6,0.3-1.4,0.5l1-0.4c8.5-4.1,14.7-9.7,16.5-15.4
		c3.1-10.2-9.6-17-28.4-15.2c-14.3,1.4-28,7.4-35.2,14.7c0,0-0.6,0.6-0.8,0.9c0.5-1,0.6-1.2,0.6-1.2c5.6-10.2,22.7-19.2,40.8-21
		C374.9,247.6,388.5,255.3,385.2,266.9"/>
	<path class="st0" d="M326.5,214.1c6.6,4.6,10.8,15.8,11.3,28.6c0,0,0,0.7,0,1.5l-0.1-1.1c-1.2-9.3-4.5-17-9.3-20.5
		c-8.7-6.3-19.2,3.6-23.5,22.1c-3.2,14-2,28.9,2.6,38c0,0,0.4,0.8,0.6,1c-0.8-0.8-1-1-1-1c-7.9-8.6-10.9-27.7-6.8-45.4
		C305,217.7,316.6,207.3,326.5,214.1"/>
	<path class="st0" d="M259.9,253.5c6.3-5,18.2-5.7,30.7-2.6c0,0,0.7,0.2,1.4,0.4l-1.1-0.2c-9.3-1.5-17.6-0.6-22.4,3
		c-8.5,6.5-2.1,19.5,14.4,28.9c12.5,7.2,27.1,10.2,37.2,8.5c0,0,0.9-0.2,1.2-0.3c-1,0.5-1.2,0.6-1.2,0.6c-10.5,5-29.7,2.5-45.4-6.6
		C257.2,275.1,250.6,260.9,259.9,253.5"/>
	<path class="st0" d="M276.5,330.9c-2.9-7.5,0.1-19.1,6.9-30c0,0,0.4-0.6,0.9-1.2l-0.5,1c-4.3,8.4-6,16.6-4,22.2
		c3.6,10.1,17.9,7.9,31.9-4.9c10.6-9.7,18-22.7,19.4-32.8c0,0,0.1-0.9,0.1-1.2c0.2,1.1,0.2,1.4,0.2,1.4c1.6,11.5-6.7,29-20.1,41.2
		C296.3,340.2,280.8,342.1,276.5,330.9"/>
	<path class="st0" d="M287.1,318.9c0.9,3.4,4.3,4.7,7.4,3c3.2-1.7,5-5.8,4.1-9.2c-0.9-3.3-4.3-4.7-7.4-2.9
		C288,311.5,286.2,315.5,287.1,318.9"/>
	<rect x="20.7" y="394.4" class="st1" width="600" height="2"/>
	<path d="M44.3,430.8c0,0.1,0,0.2-0.1,0.2c0,0.1-0.1,0.1-0.2,0.2c-0.1,0-0.3,0.1-0.4,0.1c-0.2,0-0.4,0-0.7,0c-0.3,0-0.5,0-0.7,0
		c-0.2,0-0.3-0.1-0.4-0.1c-0.1,0-0.2-0.1-0.2-0.2c0-0.1-0.1-0.1-0.1-0.2v-19.3h0l-7.6,19.4c0,0.1-0.1,0.1-0.1,0.2
		c-0.1,0.1-0.1,0.1-0.3,0.2c-0.1,0-0.3,0.1-0.4,0.1c-0.2,0-0.4,0-0.6,0c-0.2,0-0.4,0-0.6,0c-0.2,0-0.3-0.1-0.4-0.1
		c-0.1,0-0.2-0.1-0.3-0.1c-0.1-0.1-0.1-0.1-0.1-0.2l-7.3-19.4h0v19.3c0,0.1,0,0.2-0.1,0.2c0,0.1-0.1,0.1-0.3,0.2
		c-0.1,0-0.3,0.1-0.4,0.1c-0.2,0-0.4,0-0.7,0c-0.3,0-0.5,0-0.7,0c-0.2,0-0.3-0.1-0.4-0.1c-0.1,0-0.2-0.1-0.2-0.2
		c0-0.1-0.1-0.1-0.1-0.2v-20.4c0-0.5,0.1-0.8,0.4-1c0.3-0.2,0.5-0.3,0.8-0.3h1.8c0.4,0,0.7,0,1,0.1c0.3,0.1,0.5,0.2,0.7,0.3
		c0.2,0.1,0.4,0.3,0.5,0.6c0.1,0.2,0.3,0.5,0.4,0.8l6.2,16.1h0.1l6.4-16c0.1-0.4,0.3-0.6,0.4-0.9c0.1-0.2,0.3-0.4,0.5-0.6
		c0.2-0.1,0.4-0.3,0.6-0.3c0.2-0.1,0.5-0.1,0.8-0.1H43c0.2,0,0.3,0,0.5,0.1c0.1,0,0.3,0.1,0.4,0.2c0.1,0.1,0.2,0.3,0.3,0.4
		c0.1,0.2,0.1,0.4,0.1,0.6V430.8z"/>
	<path d="M65.4,421.4c0,1.6-0.2,3-0.5,4.2c-0.4,1.2-0.9,2.3-1.6,3.2c-0.7,0.9-1.6,1.6-2.7,2c-1.1,0.5-2.3,0.7-3.7,0.7
		c-1.4,0-2.6-0.2-3.7-0.6c-1-0.4-1.9-1.1-2.6-1.9c-0.7-0.8-1.2-1.8-1.5-3.1c-0.3-1.2-0.5-2.6-0.5-4.2c0-1.5,0.2-2.9,0.5-4.1
		c0.4-1.3,0.9-2.3,1.6-3.2c0.7-0.9,1.6-1.5,2.7-2c1.1-0.5,2.3-0.7,3.8-0.7c1.4,0,2.6,0.2,3.6,0.6c1,0.4,1.9,1,2.6,1.9
		c0.7,0.8,1.2,1.8,1.5,3C65.2,418.4,65.4,419.8,65.4,421.4 M62.7,421.6c0-1.1-0.1-2.1-0.3-3.1c-0.2-0.9-0.5-1.7-0.9-2.4
		s-1-1.2-1.8-1.6c-0.7-0.4-1.7-0.6-2.7-0.6c-1.1,0-2,0.2-2.7,0.6c-0.7,0.4-1.3,1-1.8,1.7c-0.4,0.7-0.8,1.5-1,2.5
		c-0.2,0.9-0.3,1.9-0.3,2.9c0,1.1,0.1,2.2,0.3,3.1c0.2,1,0.5,1.8,0.9,2.5c0.4,0.7,1,1.2,1.8,1.6c0.7,0.4,1.6,0.6,2.7,0.6
		c1.1,0,2-0.2,2.7-0.6c0.8-0.4,1.4-1,1.8-1.7c0.4-0.7,0.8-1.5,1-2.5C62.7,423.6,62.7,422.6,62.7,421.6"/>
	<path d="M82.9,430.9c0,0.1,0,0.1-0.1,0.2c0,0.1-0.1,0.1-0.2,0.1c-0.1,0-0.2,0.1-0.4,0.1c-0.1,0-0.4,0-0.6,0c-0.3,0-0.5,0-0.6,0
		c-0.2,0-0.3-0.1-0.4-0.1c-0.1,0-0.1-0.1-0.2-0.1c0-0.1-0.1-0.1-0.1-0.2v-8.5h-8.6v8.5c0,0.1,0,0.1-0.1,0.2c0,0.1-0.1,0.1-0.2,0.1
		c-0.1,0-0.2,0.1-0.4,0.1c-0.2,0-0.4,0-0.6,0c-0.2,0-0.4,0-0.6,0c-0.2,0-0.3-0.1-0.4-0.1c-0.1,0-0.1-0.1-0.2-0.1
		c0-0.1-0.1-0.1-0.1-0.2v-18.5c0-0.1,0-0.1,0.1-0.2c0.1-0.1,0.1-0.1,0.2-0.1c0.1,0,0.2-0.1,0.4-0.1c0.2,0,0.4,0,0.6,0
		c0.3,0,0.4,0,0.6,0c0.2,0,0.3,0,0.4,0.1c0.1,0,0.2,0.1,0.2,0.1c0,0.1,0.1,0.1,0.1,0.2v7.7h8.6v-7.7c0-0.1,0-0.1,0.1-0.2
		c0-0.1,0.1-0.1,0.2-0.1c0.1,0,0.2-0.1,0.4-0.1c0.1,0,0.4,0,0.6,0c0.2,0,0.4,0,0.6,0c0.2,0,0.3,0,0.4,0.1c0.1,0,0.2,0.1,0.2,0.1
		c0,0.1,0.1,0.1,0.1,0.2V430.9z"/>
	<path d="M102,430.3c0.1,0.2,0.1,0.4,0.1,0.5c0,0.1,0,0.2-0.1,0.3c-0.1,0.1-0.2,0.1-0.4,0.1c-0.2,0-0.4,0-0.7,0c-0.3,0-0.5,0-0.7,0
		c-0.2,0-0.3,0-0.4-0.1c-0.1,0-0.2-0.1-0.2-0.1c0-0.1-0.1-0.1-0.1-0.2l-1.6-4.7H90l-1.5,4.6c0,0.1-0.1,0.2-0.1,0.2
		c0,0.1-0.1,0.1-0.2,0.2c-0.1,0-0.2,0.1-0.4,0.1c-0.2,0-0.4,0-0.7,0c-0.3,0-0.5,0-0.7,0c-0.2,0-0.3-0.1-0.4-0.1
		c-0.1-0.1-0.1-0.2-0.1-0.3c0-0.1,0-0.3,0.1-0.5l6.3-17.9c0-0.1,0.1-0.2,0.1-0.3c0.1-0.1,0.2-0.1,0.3-0.2c0.1,0,0.3-0.1,0.5-0.1
		c0.2,0,0.4,0,0.7,0c0.3,0,0.6,0,0.8,0c0.2,0,0.4,0.1,0.5,0.1c0.1,0,0.2,0.1,0.3,0.2c0.1,0.1,0.1,0.2,0.2,0.3L102,430.3z
		 M93.9,414.5L93.9,414.5l-3.2,9.6h6.5L93.9,414.5z"/>
	<path d="M125.5,430.9c0,0.1,0,0.1-0.1,0.2c0,0.1-0.1,0.1-0.2,0.1c-0.1,0-0.2,0.1-0.4,0.1c-0.2,0-0.4,0-0.6,0c-0.2,0-0.4,0-0.6,0
		c-0.2,0-0.3-0.1-0.4-0.1c-0.1,0-0.2-0.1-0.2-0.1c0-0.1-0.1-0.1-0.1-0.2v-16.8h0l-6.6,16.9c0,0.1-0.1,0.1-0.1,0.2
		c-0.1,0.1-0.1,0.1-0.2,0.1c-0.1,0-0.2,0.1-0.4,0.1c-0.1,0-0.3,0-0.5,0c-0.2,0-0.4,0-0.5,0c-0.1,0-0.3,0-0.4-0.1
		c-0.1,0-0.2-0.1-0.2-0.1c-0.1,0-0.1-0.1-0.1-0.2l-6.3-16.9h0v16.8c0,0.1,0,0.1-0.1,0.2c0,0.1-0.1,0.1-0.2,0.1
		c-0.1,0-0.2,0.1-0.4,0.1c-0.2,0-0.4,0-0.6,0c-0.2,0-0.4,0-0.6,0c-0.2,0-0.3-0.1-0.4-0.1c-0.1,0-0.2-0.1-0.2-0.1
		c0-0.1-0.1-0.1-0.1-0.2v-17.7c0-0.4,0.1-0.7,0.3-0.9c0.2-0.2,0.5-0.3,0.7-0.3h1.5c0.3,0,0.6,0,0.8,0.1c0.2,0.1,0.4,0.2,0.6,0.3
		c0.2,0.1,0.3,0.3,0.4,0.5c0.1,0.2,0.2,0.4,0.3,0.7l5.4,14h0.1l5.6-13.9c0.1-0.3,0.2-0.5,0.4-0.8c0.1-0.2,0.3-0.4,0.4-0.5
		c0.2-0.1,0.3-0.2,0.5-0.3c0.2-0.1,0.4-0.1,0.6-0.1h1.6c0.1,0,0.3,0,0.4,0.1c0.1,0,0.2,0.1,0.3,0.2c0.1,0.1,0.2,0.2,0.2,0.4
		c0.1,0.1,0.1,0.3,0.1,0.5V430.9z"/>
	<path d="M141,430.2c0,0.2,0,0.3,0,0.5c0,0.1-0.1,0.2-0.1,0.3c0,0.1-0.1,0.2-0.2,0.2c-0.1,0-0.1,0.1-0.2,0.1h-9
		c-0.2,0-0.4-0.1-0.6-0.2c-0.2-0.2-0.3-0.4-0.3-0.8V413c0-0.4,0.1-0.7,0.3-0.8c0.2-0.1,0.4-0.2,0.6-0.2h8.9c0.1,0,0.1,0,0.2,0.1
		c0.1,0,0.1,0.1,0.1,0.2c0,0.1,0.1,0.2,0.1,0.3c0,0.1,0,0.3,0,0.5c0,0.2,0,0.3,0,0.5c0,0.1-0.1,0.2-0.1,0.3c0,0.1-0.1,0.1-0.1,0.2
		c-0.1,0-0.1,0.1-0.2,0.1H133v6h6.3c0.1,0,0.1,0,0.2,0.1c0.1,0,0.1,0.1,0.2,0.2c0,0.1,0.1,0.2,0.1,0.3c0,0.1,0,0.3,0,0.5
		c0,0.2,0,0.3,0,0.5c0,0.1,0,0.2-0.1,0.3c0,0.1-0.1,0.1-0.2,0.2c-0.1,0-0.1,0.1-0.2,0.1H133v6.9h7.4c0.1,0,0.2,0,0.2,0.1
		c0.1,0,0.1,0.1,0.2,0.2c0,0.1,0.1,0.2,0.1,0.3C141,429.8,141,430,141,430.2"/>
	<path d="M159.5,421.3c0,1.7-0.2,3.1-0.6,4.4c-0.4,1.2-1,2.3-1.8,3.1c-0.8,0.8-1.8,1.4-2.9,1.8c-1.2,0.4-2.6,0.6-4.2,0.6h-4
		c-0.2,0-0.4-0.1-0.6-0.2c-0.2-0.2-0.3-0.4-0.3-0.8V413c0-0.4,0.1-0.7,0.3-0.8c0.2-0.1,0.4-0.2,0.6-0.2h4.3c1.6,0,3,0.2,4.1,0.6
		c1.1,0.4,2.1,1.1,2.8,1.9c0.8,0.8,1.3,1.8,1.7,2.9C159.3,418.6,159.5,419.9,159.5,421.3 M156.9,421.4c0-1-0.1-2-0.4-2.9
		c-0.3-0.9-0.6-1.7-1.2-2.3c-0.5-0.6-1.2-1.2-2-1.5c-0.8-0.4-1.9-0.6-3.2-0.6h-2.5v15h2.6c1.2,0,2.2-0.1,3-0.5
		c0.8-0.3,1.5-0.8,2.1-1.4c0.5-0.6,1-1.4,1.2-2.4C156.7,423.9,156.9,422.7,156.9,421.4"/>
	<path d="M178.3,422.6v8.2c0,0.1,0,0.2-0.1,0.2c0,0.1-0.1,0.1-0.2,0.2c-0.1,0-0.3,0.1-0.4,0.1c-0.2,0-0.4,0-0.7,0
		c-0.3,0-0.5,0-0.7,0c-0.2,0-0.3-0.1-0.5-0.1c-0.1,0-0.2-0.1-0.2-0.2c0-0.1-0.1-0.2-0.1-0.2v-8.2l-6.1-12.5
		c-0.1-0.3-0.2-0.5-0.2-0.6c0-0.1,0-0.3,0.1-0.3c0.1-0.1,0.2-0.1,0.5-0.2c0.2,0,0.5,0,0.9,0c0.3,0,0.6,0,0.8,0
		c0.2,0,0.4,0.1,0.5,0.1c0.1,0,0.2,0.1,0.3,0.2c0.1,0.1,0.1,0.2,0.2,0.3l3,6.4c0.3,0.6,0.6,1.2,0.8,1.9c0.3,0.7,0.5,1.3,0.8,2h0
		c0.3-0.6,0.5-1.3,0.8-1.9c0.3-0.6,0.5-1.3,0.8-1.9l3-6.4c0-0.1,0.1-0.2,0.1-0.3c0.1-0.1,0.1-0.1,0.3-0.2c0.1,0,0.3-0.1,0.4-0.1
		c0.2,0,0.4,0,0.7,0c0.4,0,0.7,0,0.9,0c0.2,0,0.4,0.1,0.5,0.2c0.1,0.1,0.1,0.2,0.1,0.3c0,0.1-0.1,0.4-0.2,0.6L178.3,422.6z"/>
	<path d="M202.5,421.4c0,1.6-0.2,3-0.5,4.2c-0.4,1.2-0.9,2.3-1.6,3.2c-0.7,0.9-1.6,1.6-2.7,2c-1.1,0.5-2.3,0.7-3.7,0.7
		c-1.4,0-2.6-0.2-3.7-0.6c-1-0.4-1.9-1.1-2.6-1.9c-0.7-0.8-1.2-1.8-1.5-3.1c-0.3-1.2-0.5-2.6-0.5-4.2c0-1.5,0.2-2.9,0.5-4.1
		c0.4-1.3,0.9-2.3,1.6-3.2c0.7-0.9,1.6-1.5,2.7-2c1.1-0.5,2.3-0.7,3.8-0.7c1.4,0,2.6,0.2,3.6,0.6s1.9,1,2.6,1.9
		c0.7,0.8,1.2,1.8,1.5,3C202.3,418.4,202.5,419.8,202.5,421.4 M199.9,421.6c0-1.1-0.1-2.1-0.3-3.1c-0.2-0.9-0.5-1.7-0.9-2.4
		c-0.4-0.7-1-1.2-1.8-1.6c-0.7-0.4-1.6-0.6-2.7-0.6c-1.1,0-2,0.2-2.7,0.6c-0.7,0.4-1.3,1-1.8,1.7c-0.4,0.7-0.8,1.5-1,2.5
		c-0.2,0.9-0.3,1.9-0.3,2.9c0,1.1,0.1,2.2,0.3,3.1c0.2,1,0.5,1.8,0.9,2.5c0.4,0.7,1,1.2,1.7,1.6c0.7,0.4,1.7,0.6,2.7,0.6
		c1.1,0,2-0.2,2.8-0.6c0.8-0.4,1.3-1,1.8-1.7c0.4-0.7,0.8-1.5,1-2.5C199.8,423.6,199.9,422.6,199.9,421.6"/>
	<path d="M220.6,424.1c0,1.2-0.2,2.2-0.5,3.1c-0.3,0.9-0.8,1.7-1.4,2.3c-0.6,0.6-1.4,1.1-2.3,1.4c-0.9,0.3-1.9,0.5-3,0.5
		c-1,0-2-0.2-2.8-0.5c-0.9-0.3-1.6-0.8-2.2-1.4c-0.6-0.6-1.1-1.4-1.4-2.3c-0.3-0.9-0.5-1.9-0.5-3.1v-12c0-0.1,0-0.1,0.1-0.2
		c0,0,0.1-0.1,0.2-0.1c0.1,0,0.2-0.1,0.4-0.1c0.1,0,0.4,0,0.6,0c0.2,0,0.4,0,0.6,0c0.2,0,0.3,0.1,0.4,0.1c0.1,0,0.1,0.1,0.2,0.1
		c0,0.1,0.1,0.1,0.1,0.2V424c0,0.9,0.1,1.7,0.3,2.3c0.2,0.7,0.5,1.2,0.9,1.7c0.4,0.4,0.9,0.8,1.5,1c0.6,0.2,1.2,0.3,1.9,0.3
		c0.7,0,1.4-0.1,1.9-0.3c0.6-0.2,1.1-0.6,1.4-1c0.4-0.4,0.7-1,0.9-1.6c0.2-0.6,0.3-1.4,0.3-2.3v-11.8c0-0.1,0-0.1,0.1-0.2
		c0,0,0.1-0.1,0.2-0.1c0.1,0,0.2-0.1,0.4-0.1c0.2,0,0.4,0,0.6,0c0.3,0,0.4,0,0.6,0c0.2,0,0.3,0.1,0.4,0.1c0.1,0,0.2,0.1,0.2,0.1
		c0,0.1,0.1,0.1,0.1,0.2V424.1z"/>
	<path d="M235.7,425.8c0,0.9-0.2,1.7-0.5,2.4c-0.3,0.7-0.8,1.3-1.4,1.8c-0.6,0.5-1.3,0.9-2,1.1c-0.8,0.3-1.6,0.4-2.5,0.4
		c-0.6,0-1.2-0.1-1.8-0.2c-0.5-0.1-1-0.3-1.4-0.4c-0.4-0.2-0.8-0.3-1.1-0.5c-0.3-0.2-0.5-0.3-0.6-0.4c-0.1-0.1-0.2-0.3-0.2-0.4
		c-0.1-0.2-0.1-0.4-0.1-0.8c0-0.2,0-0.4,0-0.5c0-0.1,0-0.3,0.1-0.3c0-0.1,0.1-0.2,0.1-0.2s0.1,0,0.2,0c0.1,0,0.3,0.1,0.6,0.3
		c0.3,0.2,0.6,0.4,1,0.5c0.4,0.2,0.9,0.4,1.4,0.6c0.5,0.2,1.2,0.3,1.9,0.3c0.6,0,1-0.1,1.5-0.2c0.5-0.1,0.9-0.4,1.2-0.6
		c0.3-0.3,0.6-0.6,0.8-1c0.2-0.4,0.3-0.9,0.3-1.4c0-0.6-0.1-1-0.4-1.4c-0.2-0.4-0.6-0.7-1-1c-0.4-0.3-0.9-0.5-1.4-0.8
		c-0.5-0.2-1-0.5-1.6-0.8c-0.5-0.3-1-0.5-1.5-0.8c-0.5-0.3-1-0.7-1.4-1.1c-0.4-0.4-0.7-0.9-1-1.4c-0.3-0.6-0.4-1.2-0.4-2
		c0-0.8,0.1-1.5,0.4-2.2c0.3-0.6,0.7-1.2,1.2-1.6c0.5-0.4,1.1-0.8,1.8-1c0.7-0.2,1.5-0.4,2.3-0.4c0.4,0,0.8,0,1.3,0.1
		c0.4,0.1,0.8,0.2,1.2,0.3c0.4,0.1,0.7,0.3,1,0.4c0.3,0.1,0.5,0.3,0.6,0.4c0.1,0.1,0.1,0.2,0.2,0.2c0,0,0.1,0.1,0.1,0.2
		c0,0.1,0,0.2,0,0.3c0,0.1,0,0.3,0,0.5c0,0.2,0,0.3,0,0.5c0,0.1,0,0.3-0.1,0.3c0,0.1-0.1,0.2-0.1,0.2c-0.1,0-0.1,0.1-0.2,0.1
		c-0.1,0-0.3-0.1-0.5-0.2c-0.2-0.1-0.5-0.3-0.8-0.5c-0.3-0.2-0.7-0.3-1.2-0.5c-0.5-0.1-1-0.2-1.5-0.2c-0.5,0-1,0.1-1.4,0.2
		c-0.4,0.1-0.7,0.3-1,0.6c-0.3,0.3-0.4,0.5-0.6,0.9c-0.1,0.3-0.2,0.7-0.2,1c0,0.5,0.1,1,0.4,1.4c0.2,0.4,0.6,0.7,1,1
		s0.9,0.6,1.4,0.8c0.5,0.3,1,0.5,1.6,0.8c0.5,0.3,1.1,0.5,1.6,0.8c0.5,0.3,1,0.7,1.4,1.1c0.4,0.4,0.7,0.9,1,1.5
		C235.5,424.4,235.7,425.1,235.7,425.8"/>
	<path d="M253.4,424.1c0,1.2-0.2,2.2-0.5,3.1c-0.3,0.9-0.8,1.7-1.4,2.3c-0.6,0.6-1.4,1.1-2.3,1.4c-0.9,0.3-1.9,0.5-3,0.5
		c-1,0-2-0.2-2.8-0.5c-0.9-0.3-1.6-0.8-2.2-1.4c-0.6-0.6-1.1-1.4-1.4-2.3c-0.3-0.9-0.5-1.9-0.5-3.1v-12c0-0.1,0-0.1,0.1-0.2
		c0,0,0.1-0.1,0.2-0.1c0.1,0,0.2-0.1,0.4-0.1c0.2,0,0.4,0,0.6,0c0.2,0,0.4,0,0.6,0c0.2,0,0.3,0.1,0.4,0.1c0.1,0,0.2,0.1,0.2,0.1
		c0,0.1,0.1,0.1,0.1,0.2V424c0,0.9,0.1,1.7,0.3,2.3c0.2,0.7,0.5,1.2,0.9,1.7c0.4,0.4,0.9,0.8,1.4,1c0.6,0.2,1.2,0.3,1.9,0.3
		c0.7,0,1.4-0.1,1.9-0.3c0.6-0.2,1-0.6,1.4-1c0.4-0.4,0.7-1,0.9-1.6c0.2-0.6,0.3-1.4,0.3-2.3v-11.8c0-0.1,0-0.1,0.1-0.2
		c0,0,0.1-0.1,0.2-0.1c0.1,0,0.2-0.1,0.4-0.1c0.2,0,0.4,0,0.6,0s0.4,0,0.6,0c0.2,0,0.3,0.1,0.4,0.1c0.1,0,0.2,0.1,0.2,0.1
		c0,0.1,0.1,0.1,0.1,0.2V424.1z"/>
	<path d="M268.2,413.1c0,0.2,0,0.4,0,0.5c0,0.1-0.1,0.3-0.1,0.3c-0.1,0.1-0.1,0.1-0.2,0.2c-0.1,0-0.1,0.1-0.2,0.1h-6.9v6.6h6.5
		c0.1,0,0.1,0,0.2,0.1c0.1,0,0.1,0.1,0.2,0.2c0,0.1,0.1,0.2,0.1,0.3c0,0.1,0,0.3,0,0.5c0,0.2,0,0.3,0,0.5c0,0.1-0.1,0.2-0.1,0.3
		c-0.1,0.1-0.1,0.1-0.2,0.2c-0.1,0-0.1,0.1-0.2,0.1h-6.5v8c0,0.1,0,0.1-0.1,0.2c0,0-0.1,0.1-0.2,0.1c-0.1,0-0.2,0.1-0.4,0.1
		c-0.1,0-0.4,0-0.6,0c-0.2,0-0.4,0-0.6,0c-0.2,0-0.3,0-0.4-0.1c-0.1,0-0.2-0.1-0.2-0.1c0-0.1-0.1-0.1-0.1-0.2V413
		c0-0.4,0.1-0.7,0.3-0.8c0.2-0.1,0.4-0.2,0.6-0.2h8.4c0.1,0,0.1,0,0.2,0.1c0.1,0,0.1,0.1,0.2,0.2c0,0.1,0.1,0.2,0.1,0.4
		C268.2,412.7,268.2,412.9,268.2,413.1"/>
	<path d="M295.4,430c0,0.2,0,0.4-0.1,0.6c-0.1,0.2-0.2,0.3-0.3,0.4c-0.1,0.1-0.3,0.2-0.4,0.2c-0.1,0-0.3,0.1-0.4,0.1h-1
		c-0.3,0-0.6,0-0.8-0.1c-0.2-0.1-0.4-0.2-0.6-0.4c-0.2-0.2-0.4-0.4-0.6-0.7c-0.2-0.3-0.4-0.7-0.6-1.1l-6.6-12.6
		c-0.4-0.6-0.7-1.3-1-2.1c-0.4-0.7-0.7-1.4-1-2.1h0c0,0.8,0,1.7,0,2.5c0,0.9,0,1.7,0,2.6v13.4c0,0.1,0,0.2-0.1,0.2
		c-0.1,0.1-0.1,0.1-0.3,0.2c-0.1,0-0.3,0.1-0.4,0.1c-0.2,0-0.4,0-0.7,0c-0.3,0-0.5,0-0.7,0c-0.2,0-0.3-0.1-0.4-0.1
		c-0.1,0-0.2-0.1-0.2-0.2c0-0.1-0.1-0.1-0.1-0.2v-20.4c0-0.5,0.1-0.8,0.4-1c0.3-0.2,0.5-0.3,0.8-0.3h1.4c0.3,0,0.6,0,0.8,0.1
		c0.2,0.1,0.4,0.1,0.6,0.3c0.2,0.1,0.4,0.3,0.5,0.5c0.2,0.2,0.3,0.5,0.5,0.9l5.1,9.7c0.3,0.6,0.6,1.2,0.9,1.8
		c0.3,0.6,0.6,1.1,0.8,1.7c0.3,0.5,0.5,1.1,0.8,1.6c0.3,0.5,0.5,1.1,0.8,1.6h0c0-0.9,0-1.8,0-2.8c0-1,0-1.9,0-2.8v-12
		c0-0.1,0-0.2,0.1-0.2c0-0.1,0.1-0.1,0.2-0.2c0.1,0,0.3-0.1,0.4-0.1c0.2,0,0.4,0,0.7,0c0.3,0,0.5,0,0.7,0c0.2,0,0.3,0.1,0.4,0.1
		c0.1,0.1,0.2,0.1,0.2,0.2c0.1,0.1,0.1,0.1,0.1,0.2V430z"/>
	<path d="M314.9,430.3c0.1,0.2,0.1,0.4,0.1,0.5c0,0.1,0,0.2-0.1,0.3c-0.1,0.1-0.2,0.1-0.4,0.1c-0.2,0-0.4,0-0.7,0
		c-0.3,0-0.5,0-0.7,0c-0.2,0-0.3,0-0.4-0.1c-0.1,0-0.2-0.1-0.2-0.1c0-0.1-0.1-0.1-0.1-0.2l-1.6-4.7h-7.8l-1.5,4.6
		c0,0.1-0.1,0.2-0.1,0.2c-0.1,0.1-0.1,0.1-0.2,0.2c-0.1,0-0.2,0.1-0.4,0.1c-0.2,0-0.4,0-0.7,0c-0.3,0-0.5,0-0.7,0
		c-0.2,0-0.3-0.1-0.4-0.1c-0.1-0.1-0.1-0.2-0.1-0.3c0-0.1,0-0.3,0.1-0.5l6.3-17.9c0-0.1,0.1-0.2,0.2-0.3c0.1-0.1,0.1-0.1,0.3-0.2
		c0.1,0,0.3-0.1,0.5-0.1c0.2,0,0.4,0,0.7,0c0.3,0,0.6,0,0.8,0c0.2,0,0.4,0.1,0.5,0.1c0.1,0,0.2,0.1,0.3,0.2c0.1,0.1,0.1,0.2,0.2,0.3
		L314.9,430.3z M306.8,414.5L306.8,414.5l-3.3,9.6h6.5L306.8,414.5z"/>
	<path d="M331.9,414.6c0,0.2,0,0.4,0,0.5c0,0.2-0.1,0.3-0.1,0.4c0,0.1-0.1,0.2-0.1,0.2c-0.1,0-0.1,0.1-0.2,0.1
		c-0.1,0-0.3-0.1-0.6-0.3c-0.3-0.2-0.6-0.4-1.1-0.6c-0.5-0.2-1-0.4-1.6-0.6c-0.6-0.2-1.4-0.3-2.3-0.3c-1,0-2,0.2-2.8,0.6
		c-0.8,0.4-1.5,0.9-2.1,1.6c-0.6,0.7-1,1.5-1.3,2.5c-0.3,0.9-0.5,2-0.5,3.1c0,1.2,0.2,2.3,0.5,3.3c0.3,0.9,0.8,1.8,1.4,2.4
		c0.6,0.6,1.3,1.2,2.1,1.5c0.8,0.3,1.7,0.5,2.7,0.5c0.6,0,1.2-0.1,1.8-0.2c0.6-0.1,1.2-0.4,1.7-0.6v-5.6H325c-0.2,0-0.3-0.1-0.4-0.3
		c-0.1-0.2-0.1-0.4-0.1-0.8c0-0.2,0-0.4,0-0.5c0-0.1,0-0.2,0.1-0.3c0.1-0.1,0.1-0.1,0.2-0.2c0.1,0,0.1-0.1,0.2-0.1h6
		c0.1,0,0.2,0,0.3,0.1c0.1,0,0.2,0.1,0.3,0.2c0.1,0.1,0.2,0.2,0.2,0.3c0.1,0.1,0.1,0.3,0.1,0.5v7.4c0,0.3-0.1,0.5-0.1,0.7
		c-0.1,0.2-0.3,0.4-0.5,0.5c-0.3,0.1-0.6,0.3-1.1,0.5c-0.4,0.2-0.9,0.3-1.4,0.4c-0.5,0.1-0.9,0.2-1.4,0.3c-0.5,0.1-1,0.1-1.4,0.1
		c-1.4,0-2.7-0.2-3.9-0.7c-1.2-0.5-2.1-1.1-2.9-2c-0.8-0.9-1.4-1.9-1.8-3.1c-0.4-1.2-0.6-2.5-0.6-4c0-1.5,0.2-2.9,0.7-4.1
		c0.5-1.2,1.1-2.3,1.9-3.2c0.8-0.9,1.8-1.5,3-2c1.1-0.5,2.4-0.7,3.8-0.7c0.7,0,1.4,0.1,2,0.2c0.6,0.1,1.2,0.3,1.7,0.4
		c0.5,0.2,0.9,0.4,1.2,0.6c0.3,0.2,0.6,0.4,0.7,0.5c0.1,0.1,0.2,0.3,0.3,0.4C331.9,414,331.9,414.3,331.9,414.6"/>
	<path d="M350.1,430.9c0,0.1,0,0.1-0.1,0.2c0,0.1-0.1,0.1-0.2,0.1c-0.1,0-0.2,0.1-0.4,0.1c-0.1,0-0.4,0-0.6,0c-0.3,0-0.4,0-0.6,0
		c-0.2,0-0.3-0.1-0.4-0.1c-0.1,0-0.2-0.1-0.2-0.1c0-0.1-0.1-0.1-0.1-0.2v-8.5h-8.5v8.5c0,0.1,0,0.1-0.1,0.2c0,0.1-0.1,0.1-0.2,0.1
		c-0.1,0-0.2,0.1-0.4,0.1c-0.2,0-0.4,0-0.6,0c-0.2,0-0.4,0-0.6,0c-0.2,0-0.3-0.1-0.4-0.1c-0.1,0-0.2-0.1-0.2-0.1c0-0.1,0-0.1,0-0.2
		v-18.5c0-0.1,0-0.1,0-0.2c0-0.1,0.1-0.1,0.2-0.1c0.1,0,0.2-0.1,0.4-0.1c0.2,0,0.4,0,0.6,0c0.2,0,0.4,0,0.6,0c0.2,0,0.3,0,0.4,0.1
		c0.1,0,0.2,0.1,0.2,0.1c0,0.1,0.1,0.1,0.1,0.2v7.7h8.5v-7.7c0-0.1,0-0.1,0.1-0.2c0-0.1,0.1-0.1,0.2-0.1c0.1,0,0.2-0.1,0.4-0.1
		c0.2,0,0.4,0,0.6,0c0.2,0,0.4,0,0.6,0c0.2,0,0.3,0,0.4,0.1c0.1,0,0.1,0.1,0.2,0.1c0,0.1,0.1,0.1,0.1,0.2V430.9z"/>
	<path d="M357.6,430.9c0,0.1,0,0.1-0.1,0.2c0,0.1-0.1,0.1-0.2,0.1c-0.1,0-0.2,0.1-0.4,0.1c-0.2,0-0.4,0-0.6,0c-0.2,0-0.4,0-0.6,0
		c-0.2,0-0.3-0.1-0.4-0.1c-0.1,0-0.2-0.1-0.2-0.1c0-0.1-0.1-0.1-0.1-0.2v-18.5c0-0.1,0-0.1,0.1-0.2c0-0.1,0.1-0.1,0.2-0.1
		c0.1,0,0.2-0.1,0.4-0.1c0.2,0,0.3,0,0.6,0c0.3,0,0.4,0,0.6,0c0.1,0,0.3,0,0.4,0.1c0.1,0,0.2,0.1,0.2,0.1c0,0.1,0.1,0.1,0.1,0.2
		V430.9z"/>
	<path d="M368.4,426.2c0-0.5,0.1-1.1,0.2-1.6c0.1-0.5,0.4-1,0.7-1.4c0.3-0.5,0.7-0.9,1.2-1.3c0.5-0.4,1.1-0.9,1.8-1.3
		c-0.4-0.5-0.7-1-1-1.5c-0.3-0.4-0.5-0.9-0.7-1.2c-0.2-0.4-0.3-0.7-0.4-1.1c-0.1-0.3-0.1-0.7-0.1-1c0-0.6,0.1-1.2,0.3-1.8
		c0.2-0.6,0.5-1.1,1-1.5c0.5-0.4,1-0.8,1.7-1c0.7-0.3,1.5-0.4,2.6-0.4c0.9,0,1.6,0.1,2.2,0.3c0.6,0.2,1.1,0.4,1.5,0.8
		c0.4,0.3,0.7,0.8,0.9,1.3c0.2,0.5,0.3,1,0.3,1.6c0,0.6-0.1,1.1-0.3,1.6c-0.2,0.5-0.5,1-0.9,1.4c-0.4,0.5-0.9,0.9-1.5,1.4
		c-0.6,0.5-1.4,0.9-2.3,1.4c0.3,0.4,0.7,0.8,1.1,1.3s0.8,0.9,1.2,1.3c0.4,0.4,0.9,0.9,1.3,1.3c0.4,0.4,0.9,0.8,1.3,1.2
		c0.2-0.3,0.4-0.6,0.5-0.9c0.2-0.3,0.3-0.7,0.4-1.1c0.1-0.4,0.2-0.8,0.3-1.2c0-0.4,0.1-0.8,0.1-1.2v-0.5c0-0.1,0-0.2,0-0.3
		c0-0.1,0.1-0.1,0.2-0.2c0.1,0,0.2-0.1,0.3-0.1c0.1,0,0.4,0,0.6,0c0.2,0,0.4,0,0.5,0c0.1,0,0.3,0,0.4,0.1c0.1,0,0.2,0.1,0.2,0.2
		c0.1,0.1,0.1,0.2,0.1,0.3v0.4c0,0.6,0,1.1-0.1,1.6c-0.1,0.5-0.2,1.1-0.4,1.6c-0.2,0.5-0.4,1-0.6,1.5c-0.2,0.5-0.5,0.9-0.8,1.3
		c0.4,0.4,0.8,0.6,1.1,0.9c0.3,0.3,0.6,0.4,0.8,0.6c0.2,0.1,0.4,0.3,0.6,0.3c0.1,0.1,0.3,0.1,0.4,0.1c0.1,0,0.2,0,0.3,0
		c0.1,0,0.1,0,0.2,0c0,0,0.1,0.1,0.1,0.2c0,0.1,0.1,0.3,0.1,0.6c0,0.2,0,0.4,0,0.6c0,0.1,0,0.3-0.1,0.3c0,0.1-0.1,0.1-0.1,0.2
		c-0.1,0-0.2,0.1-0.3,0.1c-0.2,0-0.4,0.1-0.6,0.1c-0.2,0-0.4,0-0.6-0.1c-0.2-0.1-0.5-0.2-0.8-0.4c-0.3-0.2-0.7-0.4-1.1-0.7
		c-0.4-0.3-0.9-0.7-1.4-1.1c-0.4,0.3-0.8,0.6-1.3,0.9c-0.5,0.3-0.9,0.5-1.4,0.7c-0.5,0.2-1,0.4-1.6,0.5c-0.6,0.1-1.2,0.2-1.8,0.2
		c-0.6,0-1.2,0-1.7-0.2c-0.6-0.1-1-0.3-1.5-0.5c-0.5-0.2-0.9-0.5-1.3-0.8c-0.4-0.3-0.7-0.7-0.9-1.1c-0.3-0.4-0.4-0.8-0.6-1.3
		C368.5,427.3,368.4,426.7,368.4,426.2 M371,425.9c0,0.5,0.1,1,0.3,1.4c0.2,0.4,0.4,0.8,0.8,1.1c0.3,0.3,0.7,0.6,1.2,0.7
		c0.5,0.2,1,0.3,1.7,0.3c0.4,0,0.8,0,1.2-0.1c0.4-0.1,0.7-0.2,1.1-0.3c0.3-0.1,0.6-0.3,1-0.5c0.3-0.2,0.6-0.4,0.9-0.6
		c-0.5-0.4-1-0.9-1.5-1.4c-0.5-0.5-1-1-1.4-1.4c-0.5-0.5-0.9-1-1.4-1.5c-0.4-0.5-0.8-0.9-1.2-1.4c-0.5,0.3-0.9,0.6-1.2,0.9
		c-0.3,0.3-0.6,0.6-0.8,0.9c-0.2,0.3-0.4,0.6-0.4,0.9C371,425.2,371,425.6,371,425.9 M372.7,415.5c0,0.3,0,0.5,0.1,0.8
		c0.1,0.3,0.2,0.6,0.3,0.9c0.1,0.3,0.3,0.6,0.5,1c0.2,0.3,0.5,0.7,0.8,1.2c0.7-0.4,1.3-0.8,1.8-1.1c0.5-0.3,0.9-0.7,1.2-1
		c0.3-0.3,0.5-0.6,0.6-0.9c0.1-0.3,0.2-0.6,0.2-1c0-0.3,0-0.6-0.1-0.8c-0.1-0.3-0.3-0.5-0.5-0.7c-0.2-0.2-0.5-0.4-0.8-0.5
		c-0.4-0.1-0.8-0.2-1.2-0.2c-0.5,0-0.9,0.1-1.3,0.2c-0.4,0.1-0.6,0.3-0.9,0.5c-0.2,0.2-0.4,0.5-0.5,0.8
		C372.7,414.9,372.7,415.2,372.7,415.5"/>
	<path d="M410.9,424.9c0,0.7-0.1,1.4-0.2,1.9c-0.2,0.6-0.4,1.1-0.7,1.6c-0.3,0.5-0.7,0.9-1.1,1.2c-0.4,0.4-0.9,0.6-1.5,0.9
		c-0.5,0.3-1.1,0.4-1.8,0.5c-0.6,0.1-1.3,0.2-2.2,0.2h-5.7c-0.3,0-0.5-0.1-0.7-0.3c-0.2-0.2-0.3-0.5-0.3-0.9v-19.8
		c0-0.4,0.1-0.8,0.3-0.9c0.2-0.2,0.5-0.3,0.7-0.3h4.9c1.3,0,2.4,0.1,3.2,0.4c0.8,0.3,1.5,0.6,2.1,1.1c0.5,0.5,1,1.1,1.3,1.8
		c0.3,0.7,0.4,1.5,0.4,2.4c0,0.5,0,1-0.2,1.5c-0.1,0.5-0.3,0.9-0.5,1.3c-0.2,0.4-0.5,0.8-0.9,1.1c-0.4,0.3-0.8,0.6-1.3,0.8
		c0.6,0.1,1.1,0.3,1.7,0.6c0.5,0.3,0.9,0.7,1.3,1.2c0.4,0.5,0.7,1,0.9,1.6C410.8,423.5,410.9,424.1,410.9,424.9 M406.6,415
		c0-0.5-0.1-1-0.2-1.5c-0.1-0.4-0.4-0.8-0.7-1.1c-0.3-0.3-0.7-0.5-1.2-0.7c-0.5-0.2-1.2-0.2-2-0.2h-3v7.2h3.2c0.8,0,1.4-0.1,1.8-0.3
		c0.5-0.2,0.8-0.5,1.1-0.8c0.3-0.3,0.5-0.7,0.7-1.2C406.6,415.9,406.6,415.5,406.6,415 M407.9,425.1c0-0.7-0.1-1.3-0.3-1.7
		c-0.2-0.5-0.5-0.9-0.9-1.3c-0.4-0.3-0.9-0.6-1.5-0.8c-0.6-0.2-1.3-0.3-2.2-0.3h-3.4v7.8h4.2c0.6,0,1.2-0.1,1.7-0.2
		c0.5-0.2,0.9-0.4,1.3-0.7c0.4-0.3,0.6-0.7,0.9-1.2C407.8,426.2,407.9,425.7,407.9,425.1"/>
	<path d="M427.5,430.9c0,0.1,0,0.1,0,0.2c0,0.1-0.1,0.1-0.2,0.1c-0.1,0-0.2,0.1-0.4,0.1c-0.2,0-0.4,0-0.7,0c-0.3,0-0.5,0-0.6,0
		c-0.1,0-0.3-0.1-0.4-0.1c-0.1,0-0.2-0.1-0.2-0.2c0-0.1-0.1-0.2-0.1-0.3l-1.7-4.5c-0.2-0.5-0.4-1-0.6-1.4c-0.2-0.4-0.5-0.8-0.8-1.1
		c-0.3-0.3-0.6-0.6-1.1-0.7c-0.4-0.2-0.9-0.3-1.5-0.3h-1.7v8.2c0,0.1,0,0.1-0.1,0.2c0,0.1-0.1,0.1-0.2,0.1c-0.1,0-0.2,0.1-0.4,0.1
		c-0.2,0-0.4,0-0.6,0c-0.2,0-0.4,0-0.6,0c-0.2,0-0.3,0-0.4-0.1c-0.1,0-0.2-0.1-0.2-0.1c0-0.1-0.1-0.1-0.1-0.2V413
		c0-0.4,0.1-0.7,0.3-0.8c0.2-0.1,0.4-0.2,0.6-0.2h4c0.5,0,0.9,0,1.2,0c0.3,0,0.6,0.1,0.9,0.1c0.7,0.1,1.4,0.3,1.9,0.6
		c0.6,0.3,1,0.6,1.4,1.1c0.4,0.4,0.7,0.9,0.9,1.5c0.2,0.5,0.3,1.2,0.3,1.8c0,0.7-0.1,1.2-0.2,1.8c-0.2,0.5-0.4,1-0.7,1.3
		c-0.3,0.4-0.7,0.7-1.2,1c-0.4,0.3-0.9,0.5-1.5,0.7c0.3,0.1,0.6,0.3,0.8,0.5c0.3,0.2,0.5,0.5,0.7,0.8c0.2,0.3,0.4,0.6,0.6,1
		c0.2,0.4,0.4,0.8,0.6,1.3l1.7,4.3c0.1,0.4,0.2,0.6,0.3,0.8C427.5,430.7,427.5,430.8,427.5,430.9 M423.7,417.3
		c0-0.8-0.1-1.4-0.5-1.9c-0.3-0.5-0.9-0.9-1.7-1.1c-0.3-0.1-0.5-0.1-0.8-0.1c-0.3,0-0.7,0-1.2,0h-2.1v6.5h2.4c0.7,0,1.2-0.1,1.7-0.3
		c0.5-0.1,0.9-0.4,1.2-0.7c0.3-0.3,0.6-0.6,0.7-1C423.6,418.2,423.7,417.8,423.7,417.3"/>
	<path d="M446.6,421.4c0,1.6-0.2,3-0.5,4.2c-0.4,1.2-0.9,2.3-1.6,3.2c-0.7,0.9-1.6,1.6-2.7,2c-1.1,0.5-2.3,0.7-3.8,0.7
		c-1.4,0-2.6-0.2-3.7-0.6c-1-0.4-1.9-1.1-2.6-1.9c-0.7-0.8-1.2-1.8-1.5-3.1c-0.3-1.2-0.5-2.6-0.5-4.2c0-1.5,0.2-2.9,0.5-4.1
		c0.3-1.3,0.9-2.3,1.6-3.2c0.7-0.9,1.6-1.5,2.7-2c1.1-0.5,2.3-0.7,3.8-0.7c1.4,0,2.6,0.2,3.6,0.6c1,0.4,1.9,1,2.6,1.9
		c0.7,0.8,1.2,1.8,1.5,3C446.4,418.4,446.6,419.8,446.6,421.4 M443.9,421.6c0-1.1-0.1-2.1-0.3-3.1c-0.2-0.9-0.5-1.7-0.9-2.4
		c-0.4-0.7-1-1.2-1.8-1.6c-0.7-0.4-1.7-0.6-2.7-0.6c-1.1,0-2,0.2-2.7,0.6c-0.7,0.4-1.3,1-1.8,1.7c-0.5,0.7-0.8,1.5-1,2.5
		c-0.2,0.9-0.3,1.9-0.3,2.9c0,1.1,0.1,2.2,0.3,3.1c0.2,1,0.5,1.8,0.9,2.5c0.4,0.7,1,1.2,1.7,1.6c0.7,0.4,1.7,0.6,2.8,0.6
		c1.1,0,2-0.2,2.8-0.6c0.7-0.4,1.3-1,1.8-1.7c0.5-0.7,0.8-1.5,1-2.5C443.8,423.6,443.9,422.6,443.9,421.6"/>
	<path d="M461.5,413.1c0,0.2,0,0.4,0,0.5c0,0.1-0.1,0.3-0.1,0.3c0,0.1-0.1,0.1-0.2,0.2c-0.1,0-0.1,0.1-0.2,0.1h-5.3v16.7
		c0,0.1,0,0.1-0.1,0.2c0,0-0.1,0.1-0.2,0.1c-0.1,0-0.2,0.1-0.4,0.1c-0.2,0-0.4,0-0.6,0s-0.4,0-0.6,0c-0.2,0-0.3,0-0.4-0.1
		c-0.1,0-0.2-0.1-0.2-0.1c0-0.1-0.1-0.1-0.1-0.2v-16.7h-5.3c-0.1,0-0.2,0-0.2-0.1c-0.1,0-0.1-0.1-0.1-0.2c-0.1-0.1-0.1-0.2-0.1-0.3
		c0-0.1,0-0.3,0-0.5c0-0.2,0-0.4,0-0.5c0-0.1,0-0.3,0.1-0.4c0-0.1,0.1-0.2,0.1-0.2c0,0,0.1-0.1,0.2-0.1H461c0.1,0,0.2,0,0.2,0.1
		c0.1,0,0.1,0.1,0.2,0.2c0,0.1,0.1,0.2,0.1,0.4C461.5,412.7,461.5,412.9,461.5,413.1"/>
	<path d="M477.7,430.9c0,0.1,0,0.1-0.1,0.2c0,0.1-0.1,0.1-0.2,0.1c-0.1,0-0.2,0.1-0.4,0.1c-0.1,0-0.4,0-0.6,0c-0.3,0-0.5,0-0.6,0
		c-0.2,0-0.3-0.1-0.4-0.1c-0.1,0-0.2-0.1-0.2-0.1c0-0.1-0.1-0.1-0.1-0.2v-8.5h-8.6v8.5c0,0.1,0,0.1-0.1,0.2c0,0.1-0.1,0.1-0.2,0.1
		c-0.1,0-0.2,0.1-0.4,0.1c-0.1,0-0.4,0-0.6,0c-0.2,0-0.4,0-0.6,0c-0.2,0-0.3-0.1-0.4-0.1c-0.1,0-0.2-0.1-0.2-0.1
		c0-0.1-0.1-0.1-0.1-0.2v-18.5c0-0.1,0-0.1,0.1-0.2c0-0.1,0.1-0.1,0.2-0.1c0.1,0,0.2-0.1,0.4-0.1c0.1,0,0.4,0,0.6,0
		c0.2,0,0.4,0,0.6,0c0.2,0,0.3,0,0.4,0.1c0.1,0,0.2,0.1,0.2,0.1c0,0.1,0.1,0.1,0.1,0.2v7.7h8.6v-7.7c0-0.1,0-0.1,0.1-0.2
		c0-0.1,0.1-0.1,0.2-0.1c0.1,0,0.2-0.1,0.4-0.1c0.2,0,0.4,0,0.6,0c0.2,0,0.4,0,0.6,0c0.2,0,0.3,0,0.4,0.1c0.1,0,0.2,0.1,0.2,0.1
		c0,0.1,0.1,0.1,0.1,0.2V430.9z"/>
	<path d="M493.2,430.2c0,0.2,0,0.3,0,0.5c0,0.1-0.1,0.2-0.1,0.3c0,0.1-0.1,0.2-0.2,0.2c-0.1,0-0.1,0.1-0.2,0.1h-9
		c-0.2,0-0.4-0.1-0.6-0.2c-0.2-0.2-0.3-0.4-0.3-0.8V413c0-0.4,0.1-0.7,0.3-0.8c0.2-0.1,0.4-0.2,0.6-0.2h8.9c0.1,0,0.1,0,0.2,0.1
		c0.1,0,0.1,0.1,0.1,0.2c0,0.1,0.1,0.2,0.1,0.3s0,0.3,0,0.5c0,0.2,0,0.3,0,0.5c0,0.1,0,0.2-0.1,0.3c0,0.1-0.1,0.1-0.1,0.2
		c-0.1,0-0.1,0.1-0.2,0.1h-7.4v6h6.3c0.1,0,0.1,0,0.2,0.1c0.1,0,0.1,0.1,0.2,0.2c0,0.1,0.1,0.2,0.1,0.3c0,0.1,0,0.3,0,0.5
		c0,0.2,0,0.3,0,0.5c0,0.1-0.1,0.2-0.1,0.3c-0.1,0.1-0.1,0.1-0.2,0.2c0,0-0.1,0.1-0.2,0.1h-6.3v6.9h7.5c0.1,0,0.1,0,0.2,0.1
		c0.1,0,0.1,0.1,0.2,0.2c0.1,0.1,0.1,0.2,0.1,0.3S493.2,430,493.2,430.2"/>
	<path d="M522.6,425.8c0,0.9-0.2,1.7-0.5,2.4c-0.3,0.7-0.8,1.3-1.4,1.8c-0.6,0.5-1.3,0.9-2,1.1c-0.8,0.3-1.6,0.4-2.5,0.4
		c-0.6,0-1.2-0.1-1.8-0.2c-0.5-0.1-1-0.3-1.4-0.4c-0.4-0.2-0.8-0.3-1.1-0.5c-0.3-0.2-0.5-0.3-0.6-0.4c-0.1-0.1-0.2-0.3-0.2-0.4
		c0-0.2-0.1-0.4-0.1-0.8c0-0.2,0-0.4,0-0.5c0-0.1,0-0.3,0.1-0.3c0-0.1,0.1-0.2,0.1-0.2c0.1,0,0.1,0,0.2,0c0.1,0,0.3,0.1,0.6,0.3
		c0.3,0.2,0.5,0.4,0.9,0.5c0.4,0.2,0.9,0.4,1.4,0.6c0.5,0.2,1.2,0.3,1.9,0.3c0.5,0,1-0.1,1.5-0.2c0.5-0.1,0.9-0.4,1.2-0.6
		c0.3-0.3,0.6-0.6,0.7-1c0.2-0.4,0.3-0.9,0.3-1.4c0-0.6-0.1-1-0.4-1.4c-0.3-0.4-0.6-0.7-1-1c-0.4-0.3-0.9-0.5-1.4-0.8
		c-0.5-0.2-1-0.5-1.5-0.8c-0.5-0.3-1.1-0.5-1.6-0.8c-0.5-0.3-0.9-0.7-1.3-1.1c-0.4-0.4-0.7-0.9-1-1.4c-0.3-0.6-0.4-1.2-0.4-2
		c0-0.8,0.1-1.5,0.4-2.2c0.3-0.6,0.7-1.2,1.2-1.6c0.5-0.4,1.1-0.8,1.8-1c0.7-0.2,1.5-0.4,2.3-0.4c0.4,0,0.8,0,1.3,0.1
		c0.4,0.1,0.8,0.2,1.2,0.3c0.4,0.1,0.7,0.3,1,0.4c0.3,0.1,0.5,0.3,0.6,0.4c0.1,0.1,0.1,0.2,0.2,0.2c0,0,0,0.1,0.1,0.2
		c0,0.1,0,0.2,0,0.3c0,0.1,0,0.3,0,0.5c0,0.2,0,0.3,0,0.5c0,0.1,0,0.3-0.1,0.3c0,0.1-0.1,0.2-0.1,0.2c-0.1,0-0.1,0.1-0.2,0.1
		c-0.1,0-0.3-0.1-0.5-0.2c-0.2-0.1-0.5-0.3-0.8-0.5c-0.3-0.2-0.7-0.3-1.2-0.5c-0.4-0.1-0.9-0.2-1.5-0.2c-0.5,0-1,0.1-1.4,0.2
		c-0.4,0.1-0.7,0.3-1,0.6c-0.3,0.3-0.4,0.5-0.6,0.9c-0.1,0.3-0.2,0.7-0.2,1c0,0.5,0.1,1,0.4,1.4c0.2,0.4,0.6,0.7,1,1
		c0.4,0.3,0.9,0.6,1.4,0.8c0.5,0.3,1,0.5,1.6,0.8c0.5,0.3,1.1,0.5,1.6,0.8c0.5,0.3,1,0.7,1.4,1.1c0.4,0.4,0.7,0.9,1,1.5
		C522.4,424.4,522.6,425.1,522.6,425.8"/>
	<path d="M549.5,412.1c0,0.2,0,0.4,0,0.6c0,0.2-0.1,0.3-0.1,0.4c0,0.1-0.1,0.2-0.2,0.2c-0.1,0-0.1,0.1-0.2,0.1
		c-0.1,0-0.4-0.1-0.7-0.3c-0.3-0.2-0.7-0.5-1.2-0.7c-0.5-0.3-1.2-0.5-1.9-0.7c-0.7-0.2-1.6-0.3-2.6-0.3c-1.2,0-2.3,0.2-3.2,0.7
		c-1,0.4-1.8,1.1-2.4,1.8c-0.6,0.8-1.2,1.7-1.5,2.8c-0.4,1.1-0.5,2.3-0.5,3.5c0,1.4,0.2,2.7,0.6,3.8c0.4,1.1,0.9,2,1.6,2.8
		c0.7,0.8,1.5,1.3,2.4,1.7c0.9,0.4,2,0.6,3.1,0.6c0.6,0,1.3-0.1,2-0.3c0.7-0.2,1.3-0.4,1.9-0.8v-6.4h-5c-0.2,0-0.3-0.1-0.4-0.3
		c-0.1-0.2-0.1-0.5-0.1-0.9c0-0.2,0-0.4,0-0.6c0-0.1,0.1-0.3,0.1-0.4c0.1-0.1,0.1-0.2,0.2-0.2c0.1-0.1,0.2-0.1,0.3-0.1h6.8
		c0.1,0,0.3,0,0.4,0.1c0.1,0,0.2,0.1,0.3,0.2c0.1,0.1,0.2,0.2,0.2,0.4c0,0.2,0.1,0.3,0.1,0.6v8.4c0,0.3-0.1,0.5-0.2,0.8
		c-0.1,0.2-0.3,0.4-0.6,0.6c-0.3,0.2-0.8,0.3-1.2,0.5c-0.5,0.2-1,0.4-1.6,0.5c-0.5,0.1-1.1,0.2-1.7,0.3c-0.5,0.1-1.1,0.1-1.6,0.1
		c-1.7,0-3.2-0.3-4.5-0.8c-1.3-0.5-2.4-1.3-3.4-2.3c-0.9-1-1.6-2.2-2.1-3.5c-0.5-1.4-0.7-2.9-0.7-4.6c0-1.8,0.3-3.4,0.8-4.8
		c0.5-1.4,1.2-2.6,2.2-3.6c0.9-1,2.1-1.8,3.4-2.3c1.3-0.6,2.8-0.8,4.4-0.8c0.8,0,1.6,0.1,2.3,0.2c0.7,0.2,1.4,0.3,1.9,0.5
		c0.6,0.2,1,0.4,1.4,0.6c0.4,0.2,0.6,0.4,0.8,0.6c0.1,0.1,0.2,0.3,0.3,0.5C549.4,411.5,549.5,411.7,549.5,412.1"/>
	<path d="M567,430.9c0,0.1,0,0.1,0,0.2c0,0.1-0.1,0.1-0.2,0.1c-0.1,0-0.2,0.1-0.4,0.1c-0.2,0-0.4,0-0.7,0c-0.3,0-0.5,0-0.6,0
		c-0.2,0-0.3-0.1-0.4-0.1c-0.1,0-0.2-0.1-0.2-0.2c-0.1-0.1-0.1-0.2-0.1-0.3l-1.7-4.5c-0.2-0.5-0.4-1-0.6-1.4
		c-0.2-0.4-0.5-0.8-0.8-1.1c-0.3-0.3-0.6-0.6-1.1-0.7c-0.4-0.2-0.9-0.3-1.5-0.3h-1.7v8.2c0,0.1,0,0.1-0.1,0.2
		c-0.1,0.1-0.1,0.1-0.2,0.1c-0.1,0-0.2,0.1-0.4,0.1c-0.1,0-0.3,0-0.6,0c-0.2,0-0.4,0-0.6,0c-0.2,0-0.3,0-0.4-0.1
		c-0.1,0-0.2-0.1-0.2-0.1c0-0.1-0.1-0.1-0.1-0.2V413c0-0.4,0.1-0.7,0.3-0.8c0.2-0.1,0.4-0.2,0.7-0.2h4c0.5,0,0.9,0,1.2,0
		c0.3,0,0.6,0.1,0.9,0.1c0.7,0.1,1.4,0.3,1.9,0.6c0.5,0.3,1,0.6,1.4,1.1c0.4,0.4,0.6,0.9,0.9,1.5c0.2,0.5,0.3,1.2,0.3,1.8
		c0,0.7-0.1,1.2-0.3,1.8c-0.2,0.5-0.4,1-0.7,1.3c-0.3,0.4-0.7,0.7-1.2,1c-0.4,0.3-0.9,0.5-1.5,0.7c0.3,0.1,0.6,0.3,0.8,0.5
		c0.3,0.2,0.5,0.5,0.7,0.8c0.2,0.3,0.4,0.6,0.6,1c0.2,0.4,0.4,0.8,0.6,1.3l1.7,4.3c0.1,0.4,0.2,0.6,0.3,0.8
		C567,430.7,567,430.8,567,430.9 M563.2,417.3c0-0.8-0.2-1.4-0.5-1.9c-0.3-0.5-0.9-0.9-1.7-1.1c-0.2-0.1-0.5-0.1-0.8-0.1
		c-0.3,0-0.7,0-1.2,0h-2.1v6.5h2.5c0.7,0,1.2-0.1,1.7-0.3c0.5-0.1,0.9-0.4,1.2-0.7c0.3-0.3,0.5-0.6,0.7-1
		C563.1,418.2,563.2,417.8,563.2,417.3"/>
	<path d="M508.8,430.9c0,0.1,0,0.1,0,0.2c0,0.1-0.1,0.1-0.2,0.1c-0.1,0-0.2,0.1-0.4,0.1c-0.2,0-0.4,0-0.7,0c-0.2,0-0.4,0-0.6,0
		c-0.2,0-0.3-0.1-0.4-0.1c-0.1,0-0.2-0.1-0.2-0.2c-0.1-0.1-0.1-0.2-0.1-0.3l-1.7-4.5c-0.2-0.5-0.4-1-0.6-1.4
		c-0.2-0.4-0.5-0.8-0.8-1.1c-0.3-0.3-0.6-0.6-1.1-0.7c-0.4-0.2-0.9-0.3-1.5-0.3h-1.7v8.2c0,0.1,0,0.1-0.1,0.2c0,0.1-0.1,0.1-0.2,0.1
		c-0.1,0-0.2,0.1-0.4,0.1c-0.2,0-0.4,0-0.6,0c-0.2,0-0.4,0-0.6,0c-0.2,0-0.3,0-0.4-0.1c-0.1,0-0.2-0.1-0.2-0.1
		c0-0.1-0.1-0.1-0.1-0.2V413c0-0.4,0.1-0.7,0.3-0.8c0.2-0.1,0.4-0.2,0.6-0.2h4c0.5,0,0.9,0,1.2,0c0.3,0,0.6,0.1,0.8,0.1
		c0.7,0.1,1.4,0.3,1.9,0.6c0.6,0.3,1,0.6,1.4,1.1c0.4,0.4,0.7,0.9,0.9,1.5c0.2,0.5,0.3,1.2,0.3,1.8c0,0.7-0.1,1.2-0.3,1.8
		c-0.2,0.5-0.4,1-0.7,1.3c-0.3,0.4-0.7,0.7-1.2,1c-0.4,0.3-0.9,0.5-1.5,0.7c0.3,0.1,0.6,0.3,0.8,0.5c0.3,0.2,0.5,0.5,0.7,0.8
		c0.2,0.3,0.4,0.6,0.6,1c0.2,0.4,0.4,0.8,0.6,1.3l1.7,4.3c0.1,0.4,0.2,0.6,0.3,0.8C508.8,430.7,508.8,430.8,508.8,430.9
		 M505.1,417.3c0-0.8-0.1-1.4-0.5-1.9c-0.3-0.5-0.9-0.9-1.7-1.1c-0.3-0.1-0.5-0.1-0.8-0.1c-0.3,0-0.7,0-1.2,0h-2.1v6.5h2.5
		c0.7,0,1.2-0.1,1.7-0.3c0.5-0.1,0.9-0.4,1.2-0.7c0.3-0.3,0.6-0.6,0.7-1C505,418.2,505.1,417.8,505.1,417.3"/>
	<path d="M586.1,421.4c0,1.6-0.2,3-0.5,4.2c-0.4,1.2-0.9,2.3-1.6,3.2c-0.7,0.9-1.6,1.6-2.7,2c-1.1,0.5-2.3,0.7-3.8,0.7
		c-1.4,0-2.6-0.2-3.7-0.6c-1-0.4-1.9-1.1-2.6-1.9c-0.7-0.8-1.2-1.8-1.5-3.1c-0.3-1.2-0.5-2.6-0.5-4.2c0-1.5,0.2-2.9,0.5-4.1
		c0.4-1.3,0.9-2.3,1.6-3.2c0.7-0.9,1.6-1.5,2.7-2c1.1-0.5,2.3-0.7,3.8-0.7c1.4,0,2.6,0.2,3.6,0.6c1,0.4,1.9,1,2.6,1.9
		c0.7,0.8,1.2,1.8,1.5,3C585.9,418.4,586.1,419.8,586.1,421.4 M583.4,421.6c0-1.1-0.1-2.1-0.3-3.1c-0.2-0.9-0.5-1.7-1-2.4
		c-0.4-0.7-1-1.2-1.8-1.6c-0.7-0.4-1.7-0.6-2.7-0.6c-1.1,0-2,0.2-2.7,0.6c-0.7,0.4-1.3,1-1.8,1.7c-0.5,0.7-0.8,1.5-1,2.5
		c-0.2,0.9-0.3,1.9-0.3,2.9c0,1.1,0.1,2.2,0.3,3.1c0.2,1,0.5,1.8,0.9,2.5c0.4,0.7,1,1.2,1.8,1.6s1.6,0.6,2.7,0.6
		c1.1,0,2-0.2,2.8-0.6c0.8-0.4,1.3-1,1.8-1.7c0.5-0.7,0.8-1.5,1-2.5C583.3,423.6,583.4,422.6,583.4,421.6"/>
	<path d="M604.1,424.1c0,1.2-0.2,2.2-0.5,3.1c-0.3,0.9-0.8,1.7-1.4,2.3c-0.6,0.6-1.4,1.1-2.3,1.4c-0.9,0.3-1.9,0.5-3,0.5
		c-1,0-2-0.2-2.8-0.5c-0.9-0.3-1.6-0.8-2.2-1.4c-0.6-0.6-1.1-1.4-1.4-2.3c-0.3-0.9-0.5-1.9-0.5-3.1v-12c0-0.1,0-0.1,0.1-0.2
		c0,0,0.1-0.1,0.2-0.1c0.1,0,0.2-0.1,0.4-0.1c0.1,0,0.4,0,0.6,0c0.2,0,0.4,0,0.6,0c0.2,0,0.3,0.1,0.4,0.1c0.1,0,0.2,0.1,0.2,0.1
		c0,0.1,0.1,0.1,0.1,0.2V424c0,0.9,0.1,1.7,0.3,2.3c0.2,0.7,0.5,1.2,0.9,1.7c0.4,0.4,0.9,0.8,1.4,1c0.6,0.2,1.2,0.3,1.9,0.3
		c0.7,0,1.4-0.1,1.9-0.3c0.6-0.2,1-0.6,1.4-1c0.4-0.4,0.7-1,0.9-1.6c0.2-0.6,0.3-1.4,0.3-2.3v-11.8c0-0.1,0-0.1,0.1-0.2
		c0,0,0.1-0.1,0.2-0.1c0.1,0,0.2-0.1,0.4-0.1c0.2,0,0.4,0,0.6,0c0.3,0,0.4,0,0.6,0c0.2,0,0.3,0.1,0.4,0.1c0.1,0,0.2,0.1,0.2,0.1
		c0,0.1,0.1,0.1,0.1,0.2V424.1z"/>
	<path d="M620.6,417.6c0,1-0.1,1.8-0.5,2.6c-0.3,0.8-0.8,1.4-1.3,2c-0.6,0.5-1.3,1-2.1,1.3c-0.8,0.3-1.8,0.5-3,0.5h-2.1v6.9
		c0,0.1,0,0.1-0.1,0.2c0,0.1-0.1,0.1-0.2,0.1c-0.1,0-0.2,0.1-0.4,0.1c-0.1,0-0.4,0-0.6,0s-0.4,0-0.6,0c-0.2,0-0.3-0.1-0.4-0.1
		c-0.1,0-0.2-0.1-0.2-0.1c-0.1-0.1-0.1-0.1-0.1-0.2v-17.8c0-0.4,0.1-0.7,0.3-0.8c0.2-0.2,0.4-0.3,0.7-0.3h4c0.4,0,0.8,0,1.2,0.1
		c0.4,0,0.8,0.1,1.3,0.2c0.5,0.1,1,0.3,1.5,0.6c0.5,0.3,1,0.7,1.4,1.2c0.4,0.5,0.6,1,0.8,1.6C620.6,416.2,620.6,416.9,620.6,417.6
		 M618,417.8c0-0.8-0.1-1.4-0.4-2c-0.3-0.5-0.6-0.9-1.1-1.2c-0.4-0.3-0.9-0.4-1.3-0.5c-0.4-0.1-0.9-0.1-1.3-0.1h-2.3v7.7h2.3
		c0.8,0,1.4-0.1,1.9-0.3c0.5-0.2,0.9-0.5,1.2-0.8c0.3-0.4,0.6-0.8,0.8-1.3C617.9,418.9,618,418.4,618,417.8"/>
	<polygon points="153.7,387.7 155.8,386 157.3,387.6 159.2,386.1 161.5,388.4 159.4,390.2 157.9,388.8 156,390.3 	"/>
	<path d="M116.2,347.2l-0.1-0.6c0,0-0.3-2.1,1.2-3.2c-0.4-0.1-0.9-0.4-1.2-1c-0.4-0.7-0.3-1.6,0.3-2.8c0-0.1,0.8-2.6,5.6-2.3l0.2,0
		l-0.6,2.2l-0.2,0c0,0-2.9-0.6-3.7,1c0,0-0.2,0.3,0,0.6c0.2,0.3,0.7,0.6,2.2,0.6c0.5,0,1,0,1.6-0.1l0.3,0l-0.8,2.1l-0.1,0
		c0,0-3.6,1-4.5,2.8L116.2,347.2z"/>
	<path d="M406.1,376.3c-0.5,0-1-0.1-1.4-0.4c0,0-4.1-2.2-6.7-4.2c-0.4,0.7-1.5,2.7-3.8,2.7h-15H379c-0.4,0-1.5-0.1-2.5-1.1
		c-0.3,0.5-0.8,1-1.7,1l-12.3,0c-0.4,0-1.6-0.1-2.2-1c-0.5-0.8-0.4-2.1,0.3-3.7l0.4,0.1c0,0,0,0.3,0.2,0.6c0.3,0.3,0.9,0.6,2.2,0.6
		h11.5l-3.9-9.4l2.2-1.8l4.5,10.7c0,0,0.3,0.5,1.5,0.5h14.9c0,0,0.1,0,0.3,0c0.4,0,1.5-0.2,2.5-1.7c0.1-0.2,2.9-5.8,7.5-6.6
		c0,0,0.4,0,0.9,0c1.2,0,4.2,0.3,4.2,3.4v4.7c0,0,0,0.1,0.1,0.2c0.1,0.1,0.3,0.2,0.7,0.2h16.1c0,0,0.1,0,0.3,0
		c0.5,0,1.6-0.1,2.8-0.8l0.7-0.4c1-0.6,1.7-1.1,2.4-1.4c-1.3-0.6-4.5-2-6.6-3.3c-0.8-0.5-1.6-0.8-2.2-0.8c-0.4,0-0.7,0.1-0.9,0.2
		c-0.1,0-0.2,0.1-0.3,0.1c-0.1,0-0.3-0.1-0.3-0.3l0-0.1l0.1-0.1c0,0,1-1.1,1.8-1.6c0.5-0.3,1.1-0.6,1.9-0.6c0.7,0,1.4,0.2,2.1,0.7
		c0.7,0.4,6.7,4.1,12.7,5.2l0.3,0.1l-1.3,2.2h-0.1c0,0-0.5,0-1.3-0.2c0.2,0.4,0.7,0.9,1.7,0.9l3.2,0l0.1,0.2V371
		c0.8,0,1.6-1.2,1.9-1.7c1.9-2.8,5.8-7.5,5.8-7.6c0.7-0.8,1.5-1.2,2.3-1.2c1.5,0,2.5,1.2,2.6,1.3c2.8,3.2,3.3,6.1,3.4,6.2
		c0.5,2.6-1.5,6-1.6,6.2c-0.6,0.8-1.4,1.3-2.4,1.3c-1.1,0-2.1-0.5-2.2-0.5c-0.4-0.2-3.6-1.6-5.2-2.3c-0.8-0.4-1.1-1.1-1.3-1.5
		c-1.7,2.8-3,3-3.4,3c-0.1,0-0.1,0-0.1,0h-3.9c-0.3,0-2.3-0.1-3-2.5l-0.5-1.7c0,0-0.1,0-0.2,0c-0.7,0-2.5,0.2-5.4,2.3
		c-2.7,1.9-3.4,2-4.4,2h-0.4c-0.1,0-0.3,0-0.5,0l-15.6,0C409.3,374.7,407.9,376.3,406.1,376.3 M405.5,365.3c-0.5,0-1.2,0.1-1.9,0.4
		c0,0-1.8,0.7-3,2.3c0,0-0.4,0.4-0.3,0.8c0,0.3,0.2,0.6,0.5,0.9c0,0,3,2.4,5.6,3.5c0,0,0.3,0.1,0.5,0.1c0.3,0,0.5-0.1,0.6-0.4
		c0-0.5,0-4.7,0-5.5c0,0,0-0.9-0.5-1.5C406.7,365.4,406.2,365.3,405.5,365.3 M453.2,363.8c-0.5,0-1,0.3-1.4,0.7c0,0-1.7,1.9-2.5,3.2
		c0,0-0.4,0.5-0.2,1.1c0.1,0.3,0.3,0.6,0.7,0.9l5.9,2.6c0,0,0.2,0.1,0.4,0.1c0.3,0,0.5-0.2,0.7-0.5c0,0,0.7-2.5-0.3-4.7
		c0,0-0.9-2.1-2.2-3C454.1,364.2,453.8,363.8,453.2,363.8"/>
	<path d="M531.9,384c-0.4,0-0.9-0.1-1.3-0.3c-1.5-0.8-3.3-3-3.4-3.1l0.2-0.3c1.1,0.5,2.2,0.7,3.1,0.7c2.3,0,3.5-1.4,4.3-2.4l0.2-0.2
		c1-1.1,1.5-3.3,1.6-4.1h-3.5c-3,0-3.6-0.7-3.6-0.8l-0.1,0c-0.4-0.4-1.8-1.7-0.4-5.2c1.7-4.5,3.6-5.3,3.6-5.4c0,0,0.5-0.4,1.3-0.4
		c0.6,0,1.7,0.3,2.7,1.5c1.9,2.4,2.4,6.1,2.4,7h9.2c1.2,0,1.6-0.9,1.6-0.9c0.4-0.9,1.2-2.3,1.2-2.3c0.1-0.2,2.8-4.5,7.3-5.2
		c0.4-0.1,0.8-0.1,1.1-0.1c1.1,0,2,0.3,2.6,0.9c0.9,0.9,0.8,2.2,0.8,2.2v4.5c0,0.4,0.1,0.6,0.3,0.8c0.1,0.1,0.3,0.1,0.4,0.1
		c0,0,0.1,0,0.1,0l23.7,0c0.2,0,0.3,0,0.5,0c1.9,0,2.4-0.5,2.4-0.5c1-0.9,2.8-1.8,3.7-2.2c-1.4-0.5-4.1-1.9-6.1-2.9
		c-0.5-0.2-0.9-0.5-1.3-0.6c-0.8-0.4-1.4-0.6-2-0.6c-0.5,0-0.7,0.1-0.7,0.1c-0.1,0.1-0.2,0.1-0.3,0.1h-0.1l-0.1-0.1
		c-0.1-0.1,0-0.3,0.6-0.9c0.9-0.9,2-1.4,3-1.4c0.4,0,0.7,0.1,1.1,0.2c0.6,0.2,0.9,0.4,1.4,0.7c0.8,0.4,1.9,1.1,4.6,2.4
		c4.6,2.2,7.7,2.6,7.7,2.6l0.3,0l-1.5,2.4l-0.1,0c-0.3,0-0.5-0.1-0.8-0.1c0.3,0.7,0.8,0.9,1.3,0.9c0.1,0,0.3,0,0.3,0l3.3,0l0.1,0
		c0.8,0,1.6-1.1,1.9-1.5c1.9-2.8,5.8-7.5,5.8-7.6c0.7-0.8,1.5-1.2,2.3-1.2c1.5,0,2.6,1.2,2.6,1.3c2.8,3.2,3.3,6.1,3.3,6.2
		c0.5,2.6-1.5,6-1.5,6.2c-0.6,0.8-1.4,1.3-2.5,1.3c-1.1,0-2.1-0.5-2.2-0.5c-0.4-0.3-3.6-1.6-5.2-2.3c-0.8-0.4-1.1-1.1-1.3-1.5
		c-1.7,2.8-3,3-3.4,3c-0.1,0-0.1,0-0.1,0h-3.6c-2.6-0.1-3.7-3.4-4-4.2c-0.7,0.1-3.8,0.6-5.2,1.9c-2.3,2.2-4.9,2.3-5.7,2.3
		c-0.2,0-0.3,0-0.3,0l-22.9,0c-1.1,1.6-2.2,2-3,2c-0.8,0-1.4-0.4-1.4-0.4c-3.3-1.7-6.5-3.7-7.3-4.2c-1.3,2.2-2.7,2.5-3.4,2.5
		c-0.2,0-0.3,0-0.4,0l-8.5,0c-0.7,3.2-2.1,6.3-3.7,7.9C533.9,383.4,532.9,384,531.9,384 M558.9,365.2c-0.6,0-1.3,0.1-2,0.4
		c-2.2,0.7-3.1,2.3-3.1,2.3c0,0-0.5,0.8,0.2,1.4c0,0,3,2.2,5.3,3.3c0,0,0.5,0.3,1,0.3c0.4,0,0.6-0.2,0.6-0.7v-5c0,0,0.1-0.9-0.4-1.5
		C560,365.4,559.5,365.2,558.9,365.2 M614.2,364c-0.5,0-1,0.3-1.4,0.7c0,0-1.7,2-2.5,3.2c0,0-0.4,0.5-0.2,1.1
		c0.1,0.3,0.3,0.6,0.7,0.9l5.9,2.6c0,0,0.2,0.1,0.4,0.1c0.3,0,0.5-0.2,0.7-0.6c0,0,0.7-2.5-0.3-4.7c0,0-0.9-2.1-2.2-3
		C615.1,364.3,614.8,364,614.2,364 M534,366c-0.1,0-0.3,0-0.4,0c-1.7,0.4-2.3,2.7-2.4,2.8c0,0-0.3,1.2,0.1,1.8
		c0.2,0.3,0.5,0.4,0.9,0.4h3.4c0,0,0.5,0,0.7-0.4c0.1-0.2,0.2-0.4,0.1-0.8C536.5,369.8,536,366,534,366"/>
	<polygon points="587.2,378.5 589.6,376.8 592.2,379.4 589.8,381.1 	"/>
	<path d="M489.6,374.3c-1.8-0.1-2.6-1.1-2.9-1.6l-0.9,0.9h-0.1c-0.3,0-0.6,0-1,0c-2.1,0-4.9-0.4-5-0.4c-4.1-0.6-4.1-3.5-4.1-3.6
		c-0.2-2.8,2.3-4.3,2.5-4.4c2.1-1.5,5.5-3.3,6.2-3.7l-0.2-1.1l2.6-2.1l2.2,11.3c0.3,1.1,1.1,1.2,1.4,1.2h22
		c-1.7-1.8-1.3-3.8-1.3-3.9c1.5-6.2,5.3-7.3,5.5-7.4c0.5-0.1,0.9-0.2,1.4-0.2c3.8,0,5.4,4.3,5.4,4.4l0.2,0.6l-0.5-0.4
		c-1.4-1.1-2.8-1.6-4.1-1.6c-3.3,0-5.4,3.2-5.4,3.2c-1.3,1.8,0.6,3.4,0.7,3.5c1.6,1.6,3.1,1.6,3.4,1.6h8.6l-1,3.4H489.6z M484.6,364
		l-4.9,2.8c-0.1,0-1.6,0.9-1.1,2.3c0,0,0.2,0.6,1.5,0.7c0,0,3.6,0.6,6,0.6c-0.2-0.9-1-4.2-1.4-6.2C484.8,364.2,484.8,364,484.6,364
		C484.7,364,484.6,364,484.6,364"/>
	<polygon points="485.4,356.5 483.5,358 481.2,355.7 483.4,353.9 484.9,355.4 486.8,353.9 489,356.3 486.9,358 	"/>
	<polygon points="263.8,354.4 266.2,352.7 268.8,355.3 266.5,357 	"/>
	<path d="M317.6,383.9c-0.4,0-0.9-0.1-1.3-0.3c-1.5-0.8-3.3-3-3.4-3.1l0.2-0.3c1.1,0.5,2.2,0.7,3.1,0.7c2.3,0,3.5-1.4,4.3-2.4
		l0.2-0.2c1-1.1,1.5-3.3,1.6-4.1H319c-3.1,0-3.6-0.7-3.7-0.8l0,0c-0.5-0.4-1.8-1.7-0.4-5.2c1.7-4.5,3.6-5.3,3.6-5.4
		c0,0,0.5-0.4,1.3-0.4c0.6,0,1.7,0.3,2.7,1.5c1.9,2.4,2.3,6.1,2.4,7h20.4c0.2,0,1,0,1-0.8c0.1-1.2,0-4-2-5.7l-0.2-0.1l2.3-2.1
		l0.1,0.1c0,0,3.4,3.6,1.4,9.1l-0.6,1.6c-0.1,0.4-0.6,1.3-1.7,1.3c0,0-0.1,0-0.1,0l-21-0.1c-0.7,3.2-2.1,6.3-3.7,7.9
		C319.6,383.4,318.6,383.9,317.6,383.9 M319.7,365.9c-0.1,0-0.2,0-0.4,0c-1.7,0.4-2.4,2.7-2.4,2.8c0,0-0.3,1.2,0.1,1.8
		c0.2,0.3,0.5,0.4,0.9,0.4h3.4c0,0,0.1,0,0.1,0c0.4,0,0.7-0.1,0.8-0.3c0.1-0.1,0.1-0.2,0-0.4C322.4,370.2,321.8,365.9,319.7,365.9"
		/>
	<polygon points="340.1,379.5 342.1,377.8 343.6,379.4 345.6,377.9 347.8,380.2 345.7,382 344.3,380.6 342.4,382.1 	"/>
	<path d="M295.1,374.3c-1.1,0-1.6-0.6-1.9-1c-0.7,0.9-1.4,1-1.6,1h-25c-0.2,0-0.4,0-0.5,0c-1.6,0-2.6-0.6-3-0.8
		c-1,0.8-2.6,0.8-2.9,0.8h-16c-1.6,0-3.2-0.2-3.3-0.2c-1.5-0.4-2.6-1.2-3.1-2.3c-1.4-2.7,0.1-6.5,0.2-6.7l1.3-2l0.4,0.2
		c-0.2,0.9-0.5,2.6-0.5,2.6c-0.2,1.6,0.1,2.9,0.9,3.8c1,1.1,2.5,1.2,3,1.2l0.1,0h16.4c-1.2-2.6,2.4-7.1,2.6-7.3
		c1.7-2.2,3.3-3.3,5-3.3c1.3,0,2.1,0.7,2.2,0.7c3.2,3,0.1,8.6-0.8,10h23.6l-1.6-7.5l2.5-1.4l1.9,8.9h7l-1.8-7.3l2.4-1.5l2.1,8.7h4.1
		c1.1-3.3-2.4-7.5-2.4-7.6l-0.1-0.1l2.3-2l0.1,0.1c3.7,4,2.1,10,2.1,10l-1.6,2.9l-0.1,0c0,0-3.6-0.1-4.5-0.1c-0.7,0-1.3-0.5-1.5-0.8
		c-0.6,0.8-1.7,0.9-1.9,0.9L295.1,374.3z M266.8,363.5c-1.1,0-2.8,1.3-4,3.1c-0.4,0.7-0.6,1.3-0.4,1.9c0.2,0.9,1.1,1.3,1.1,1.3
		c0.5,0.4,1,0.6,1.6,0.6c1.6,0,2.8-1.9,2.8-1.9c0.3-0.7,1-3.1-0.2-4.6C267.4,363.6,267.2,363.5,266.8,363.5"/>
	<path d="M208.4,374.2c-1.2,0-2.1-0.4-2.6-1c-0.7-0.8-0.6-1.8-0.6-1.8v-21.8l2.9-1.7l0.1,21.7c0,1.3,1,1.4,1.2,1.4h10.1
		c0.3,0,0.5-1,0.5-1.6c0.3-2.4-1.9-4.9-1.9-5l-0.1-0.1l1.8-2.2l0.2,0.2c3.7,4.1,1.8,8.6,1.8,8.6l-1.5,3.3H208.4z"/>
	<path d="M158.1,385.7c-0.2,0-0.4,0-0.4,0c-2.4-0.1-4.2-1-5.3-2.5c-2.2-3.1-0.9-7.8-0.8-8c0.6-3.1,2.5-5.3,2.6-5.4l0.3,0.2
		c0,0.1-3.1,7.5,0.4,11.1c0.9,0.9,2,1.3,3.3,1.3c4.4,0,9.3-4.9,9.4-4.9c0.4-0.5,0.5-0.9,0.5-1.3c-0.1-0.5-0.4-0.8-0.4-0.8
		c-1.5-0.9-3.8-1.1-5-1.1c-0.5,0-0.8,0-0.8,0l-0.3,0l1.4-3.2h24.8c-2.6-2.9-0.6-6.3-0.5-6.3c1.9-3.4,4-5.1,6.2-5.1
		c2.5,0,4.2,2.1,4.3,2.2l1,2.1l-0.3,0.2c-1.3-1-2.7-1.6-4-1.6c-2.3,0-4,1.5-4.7,2.4l-0.1,0.2c-0.9,1.1-1.3,1.7-0.1,3.6
		c1.3,2,3.3,2.1,3.3,2.1h9l-1.3,3.2H171c0.5,1.5-1.5,4.4-1.7,4.8C165.4,385.2,159.7,385.7,158.1,385.7"/>
	<path d="M129.4,384.1c-0.4,0-0.9-0.1-1.3-0.3c-1.5-0.8-3.3-3-3.4-3.1l0.2-0.3c1.1,0.5,2.2,0.7,3.1,0.7c2.3,0,3.5-1.4,4.3-2.4
		l0.2-0.2c1-1.1,1.5-3.3,1.6-4.1l-3.4,0c-3.1,0-3.6-0.7-3.7-0.8l0,0c-0.5-0.4-1.8-1.7-0.5-5.2c1.7-4.5,3.6-5.3,3.6-5.4
		c0,0,0.5-0.4,1.3-0.4c0.7,0,1.7,0.3,2.7,1.5c2.2,2.7,2.4,7,2.4,7.1c0,0.1,0,1.9-0.3,3c-0.7,3.3-2.2,6.4-3.7,8
		C131.4,383.5,130.4,384.1,129.4,384.1 M131.5,366.1c-0.1,0-0.2,0-0.4,0c-1.7,0.4-2.4,2.7-2.4,2.7c0,0-0.3,1.2,0.1,1.8
		c0.2,0.3,0.5,0.4,0.9,0.4h3.4c0,0,0,0,0.1,0c0.4,0,0.7-0.1,0.8-0.2c0.1-0.1,0.1-0.2,0-0.4C134.2,370.4,133.6,366.1,131.5,366.1"/>
	<path d="M74.7,384.1c-0.4,0-0.9-0.1-1.3-0.3c-1.5-0.8-3.3-3-3.4-3.1l0.2-0.3c1.1,0.5,2.2,0.7,3.1,0.7c2.3,0,3.5-1.4,4.3-2.3
		l0.2-0.2c1-1.1,1.6-3.4,1.7-4.1l-3.5,0.1c-3.1,0-3.6-0.7-3.7-0.8l0,0c-0.4-0.4-1.8-1.7-0.4-5.2c1.7-4.5,3.6-5.3,3.6-5.4
		c0,0,0.5-0.4,1.3-0.4c0.6,0,1.7,0.3,2.7,1.5c0.1,0.1,1.8,1.9,2.2,6.6c0,0.1,0,0.2,0.4,0.2h19.5c0.2,0,1,0,1.9-0.6
		c0.2-0.1,0.4-0.3,0.6-0.4c0.8-0.6,1.8-1.3,2.8-1.5c-1.2-0.5-3.8-1.7-5.5-2.8c-1.3-0.9-2.5-1.3-3.7-1.3c-0.4,0-0.7,0.1-1,0.1
		l-0.6,0.1l0.4-0.4c0.1-0.1,1.5-1.5,2.3-1.9c0.4-0.2,0.7-0.3,1-0.3c0.5,0,1,0.2,1.8,0.6c0.2,0.1,0.5,0.3,0.8,0.5
		c1.5,0.9,4.4,2.6,9,4c0,0,2.4,0.7,3.4,0.9l0.3,0l-1.4,2.6l-0.2-0.1c0,0-1.2-0.5-2.8-0.5c-1.3,0-2.5,0.3-3.6,0.8
		c-2.2,1-3.7,2.2-3.7,2.2c0,0-1.4,1.4-3.1,1.4c-0.1,0-0.1,0-0.2,0H81.6c-0.7,3.2-2.2,6.4-3.7,8C76.7,383.5,75.7,384.1,74.7,384.1
		 M76.8,366.1c-0.1,0-0.2,0-0.4,0c-1.7,0.4-2.3,2.7-2.3,2.7c0,0-0.3,1.2,0.1,1.8c0.2,0.3,0.5,0.4,0.9,0.4h3.4c0,0,0.1,0,0.1,0
		c0.4,0,0.7-0.1,0.8-0.2c0.1-0.1,0.1-0.2,0-0.4C79.5,370.4,78.9,366.1,76.8,366.1"/>
	<path d="M34.7,374.3c-1.8-0.1-2.6-1.1-2.9-1.6l-0.9,0.9h-0.1c-0.3,0-0.6,0-1,0c-2.1,0-4.9-0.4-5-0.4c-4.1-0.6-4.1-3.5-4.1-3.6
		c-0.2-2.8,2.3-4.3,2.5-4.4c2.1-1.5,5.5-3.3,6.2-3.7l-0.2-1.1l2.6-2.1l2.2,11.3c0.3,1.1,1.1,1.2,1.4,1.2h20.5c0.1,0,0.7,0,0.8-0.8
		c0.1-1.2,0-3.7-1.6-5.5l-0.1-0.1l1.8-2.4l0.2,0.1c0,0,3.5,2.9,1.4,8.7c-0.1,0.3-1.1,3.3-2.4,3.3L34.7,374.3z M29.8,364l-4.9,2.8
		c-0.1,0-1.6,0.9-1.1,2.3c0,0,0.2,0.6,1.5,0.7c0,0,3.6,0.6,6.1,0.6c-0.2-0.9-1-4.2-1.4-6.2C30,364.2,29.9,364,29.8,364L29.8,364"/>
	<path d="M119,375.6c0-0.2-0.1-18-0.5-25.7v-0.1l3.3-3l0.4,22.1c0,0.2-0.4,4.9-2.9,6.9L119,376V375.6z"/>
	<path d="M64.4,375.6c0-0.2-0.1-18-0.5-25.7v-0.1l3.3-3l0.4,22.1c0,0.2-0.4,4.9-2.9,6.9l-0.3,0.3V375.6z"/>
	<polygon points="53,357.2 55.3,355.4 57.5,357.9 55.3,359.7 	"/>
	<polygon points="102,357.6 104.3,355.8 106.5,358.3 104.2,360.1 	"/>
	<polygon points="189.3,354.2 191.6,352.4 193.8,354.9 191.5,356.7 	"/>
	<polygon points="216.2,357.7 218.6,355.9 220.8,358.3 218.5,360.2 	"/>
</g>
</svg>
